<?xml version="1.0" standalone="no"?>
<!DOCTYPE svg PUBLIC "-//W3C//DTD SVG 20010904//EN"
 "http://www.w3.org/TR/2001/REC-SVG-20010904/DTD/svg10.dtd">
<svg version="1.0" xmlns="http://www.w3.org/2000/svg"
 width="512.000000pt" height="512.000000pt" viewBox="0 0 512.000000 512.000000"
 preserveAspectRatio="xMidYMid meet">

<g transform="translate(0.000000,512.000000) scale(0.100000,-0.100000)"
fill="#000000" stroke="none">
<path d="M3275 4131 c-36 -16 -97 -73 -106 -99 -3 -6 -93 11 -228 44 -124 30
-228 51 -232 47 -4 -5 -47 -120 -97 -258 l-90 -250 -83 -7 c-201 -16 -386 -65
-532 -140 l-78 -41 -50 27 c-102 56 -221 41 -307 -38 -58 -53 -84 -111 -84
-188 0 -72 37 -154 88 -197 34 -27 35 -31 29 -73 -10 -64 11 -163 53 -248 68
-138 210 -261 397 -346 l83 -37 -57 -42 c-131 -96 -211 -230 -219 -365 -8
-132 33 -234 137 -344 50 -53 159 -133 203 -149 13 -4 48 -93 48 -121 0 -3
-37 -6 -83 -6 -155 0 -238 -69 -268 -224 -5 -26 -6 -59 -3 -72 l6 -24 756 0
755 0 -6 58 c-18 174 -94 251 -254 260 -46 2 -83 8 -83 12 0 5 5 31 12 59 10
46 16 53 54 71 65 32 173 129 221 198 143 209 95 460 -121 633 l-66 52 108 53
c233 113 375 265 418 450 9 39 14 92 11 123 -4 52 -3 55 36 90 54 48 81 110
80 186 -1 71 -18 117 -64 170 -77 88 -214 111 -324 56 l-58 -29 -62 34 c-129
71 -313 124 -493 142 -51 5 -95 12 -98 15 -6 5 133 395 145 409 5 5 290 -56
362 -77 8 -3 21 -27 28 -56 54 -210 363 -212 421 -2 26 92 -26 204 -114 244
-53 24 -139 24 -191 0z m183 -90 c36 -25 56 -79 48 -125 -10 -51 -77 -106
-131 -106 -103 0 -168 110 -115 195 41 66 133 82 198 36z m-648 -537 c124 -20
297 -79 396 -135 90 -51 199 -148 244 -220 18 -27 41 -76 51 -110 50 -159 -1
-312 -150 -451 -109 -102 -256 -178 -433 -222 -527 -134 -1125 44 -1287 383
-34 71 -36 82 -36 171 1 116 23 178 93 265 215 267 659 393 1122 319z m-1076
-116 l26 -11 -73 -72 c-39 -40 -90 -102 -111 -139 -21 -37 -44 -65 -50 -63 -6
2 -21 21 -34 43 -45 77 -13 183 72 235 36 22 130 26 170 7z m1805 -8 c46 -23
89 -71 97 -108 3 -15 8 -33 10 -41 11 -33 -40 -141 -66 -141 -5 0 -11 9 -15
20 -12 37 -77 125 -143 192 l-66 67 35 15 c47 21 103 20 148 -4z m-1284 -1110
c197 -39 437 -37 622 7 107 25 106 27 98 -171 -22 -568 -79 -829 -213 -969
-105 -110 -315 -107 -420 7 -136 148 -191 392 -208 934 -6 178 -5 212 7 212 8
0 59 -9 114 -20z m-195 -315 c6 -126 17 -275 25 -330 7 -55 12 -101 10 -103
-7 -7 -90 57 -137 105 -87 90 -129 211 -109 319 16 85 49 142 126 219 65 65
70 68 72 45 1 -14 7 -128 13 -255z m1149 106 c57 -107 60 -225 9 -329 -25 -52
-122 -159 -169 -186 l-32 -19 6 44 c16 112 37 349 43 493 l6 158 54 -53 c29
-29 66 -77 83 -108z m-1014 -861 c4 -11 31 -47 62 -80 l55 -60 -215 0 -216 0
9 31 c29 100 75 129 207 129 83 0 92 -2 98 -20z m952 -6 c31 -24 58 -65 68
-106 l7 -28 -211 0 -212 0 49 49 c27 27 55 63 62 81 l13 32 98 -4 c80 -2 103
-7 126 -24z"/>
<path d="M2844 3191 c-61 -28 -89 -73 -89 -143 0 -42 5 -64 21 -85 74 -99 204
-99 278 0 16 21 21 43 21 87 0 71 -21 105 -85 138 -53 27 -92 28 -146 3z"/>
<path d="M2140 3181 c-53 -28 -80 -74 -80 -136 0 -66 28 -110 92 -143 39 -20
56 -23 93 -17 60 8 120 61 135 116 19 69 -17 151 -80 184 -40 21 -118 19 -160
-4z"/>
<path d="M2176 2664 c-21 -21 -20 -31 7 -58 40 -40 112 -76 198 -97 162 -41
395 -12 517 65 50 31 65 51 57 75 -10 34 -35 33 -95 -2 -102 -61 -148 -72
-305 -71 -156 1 -220 16 -298 74 -47 34 -59 36 -81 14z"/>
</g>
</svg>
